<svg xmlns:xlink="http://www.w3.org/1999/xlink" xmlns="http://www.w3.org/2000/svg" version="1.1" viewBox="0 0 1024 1024" height="1024px" width="1024px">
    <title>头像-女一</title>
    <defs>
        <circle r="512" cy="512" cx="512" id="path-1"></circle>
        <rect height="120" width="111" y="0" x="0" id="path-3"></rect>
        <path id="path-5" d="M2.56544501,335.202643 C-11.8745444,199.704828 34.6436897,87.970614 142.120147,0 C229.166958,108.312987 317.141984,118.478525 406.045225,30.4966138 C489.302513,16.1666246 542.647085,61.3556241 566.078941,166.063612 C589.510798,270.7716 599.335078,350.076602 595.551783,403.978618 C214.667547,493.625783 17.0054344,470.700458 2.56544501,335.202643 Z"></path>
    </defs>
    <g fill-rule="evenodd" fill="none" stroke-width="1" stroke="none" id="头像-女一">
        <rect height="1024" width="1024" y="0" x="0" fill="#FFFFFF"></rect>
        <g id="路径-7">
            <mask fill="white" id="mask-2">
                <use xlink:href="#path-1"></use>
            </mask>
            <use xlink:href="#path-1" fill="#C2BDFF" id="蒙版"></use>
            <g mask="url(#mask-2)" id="椭圆形">
                <g transform="translate(457.000000, 618.000000)">
                    <mask fill="white" id="mask-4">
                        <use xlink:href="#path-3"></use>
                    </mask>
                    <use xlink:href="#path-3" fill-rule="evenodd" fill="#FFCACA" stroke="none" id="蒙版"></use>
                    <ellipse ry="23.5" rx="47" cy="10.5" cx="57" mask="url(#mask-4)" opacity="0.5191476" style="mix-blend-mode: multiply;" fill-rule="evenodd" fill="#FFB0B0" stroke="none" id="椭圆形"></ellipse>
                </g>
            </g>
            <g mask="url(#mask-2)" id="椭圆形">
                <g transform="translate(227.879853, 636.000000)">
                    <mask fill="white" id="mask-6">
                        <use xlink:href="#path-5"></use>
                    </mask>
                    <use xlink:href="#path-5" fill-rule="evenodd" fill="#6E66D4" stroke="none" id="蒙版"></use>
                    <ellipse ry="52.8488372" rx="101" cy="61" cx="284.120147" mask="url(#mask-6)" fill-rule="evenodd" fill="#FFFFFF" stroke="none" id="椭圆形"></ellipse>
                </g>
            </g>
        </g>
        <path fill="#110D2E" id="路径-3" d="M533.91587,200.351514 C605.100778,205.947054 660.490711,266.866074 700.085669,383.108571 C759.478105,557.472317 694.937595,593.53377 734.121364,671.687668 C773.305133,749.841565 842.616206,771.692713 824.220534,846.415073 C805.824862,921.137433 654,982.373197 604.136572,890.705461 C570.894287,829.593637 555.359301,738.590689 557.531614,617.696618"></path>
        <path fill="#110D2E" id="路径-2" d="M533.91587,200.351514 C438.595221,166.994837 367.51591,227.930574 320.677937,383.158726 C314.606506,445.031673 235.967824,533.389193 282.70425,589 C329.440676,644.610807 268.841821,760.914881 184.657743,698.45744 C180.953555,731.23432 188.732694,751.283021 207.99516,758.603543 C166.04893,860.663007 185.212292,923.467235 265.485247,947.016226 C385.89468,982.339713 422.531614,884.386308 441.584355,826.580637 C454.286183,788.043523 485.063354,579.300482 533.91587,200.351514 Z"></path>
        <ellipse ry="199" rx="142" cy="437" cx="512" fill="#FFCACA" id="椭圆形"></ellipse>
        <ellipse ry="25.5" rx="36.5" cy="537.5" cx="430.5" opacity="0.216334752" style="mix-blend-mode: multiply;" fill="#FFAAAA" id="椭圆形"></ellipse>
        <ellipse ry="25.5" rx="36.5" cy="537.5" cx="617.5" opacity="0.216334752" style="mix-blend-mode: multiply;" fill="#FFAAAA" id="椭圆形备份-2"></ellipse>
        <path stroke-linejoin="round" stroke-linecap="round" stroke-width="7" stroke="#110D2E" id="路径-4" d="M557.531614,410.066685 C571.923104,402.561697 583.549215,398.809203 592.409948,398.809203 C601.27068,398.809203 612.896792,402.561697 627.288282,410.066685"></path>
        <path stroke-linejoin="round" stroke-linecap="round" stroke-width="7" stroke="#110D2E" id="路径-4备份" d="M422.531614,407.066685 C436.649805,403.314191 448.139268,401.437944 457,401.437944 C465.860732,401.437944 477.623493,403.314191 492.288282,407.066685"></path>
        <path fill="#110D2E" id="路径" d="M719.97159,518.787062 C691.817596,514.724883 668.383273,515.120821 653.232296,504.276493 C652.257939,503.579095 647.571309,503.998649 646.641269,503.272985 C644.584971,501.668557 649.226627,491.039481 647.378005,489.296678 C623.733967,467.006088 616.571075,433.386444 612.964258,388.156243 C606.646291,308.927691 571.719323,298.377009 548.578511,298.377009 C525.4377,298.377009 449.161611,305.312486 449.161611,388.156243 C449.161611,445.885117 418.835005,463.825661 384.074215,484.219946 C383.137745,484.769376 386.251074,482.948697 381.255655,485.874406 C376.260237,488.800114 375.191188,512 370,512 C364.808812,512 353.569889,507.316341 352.701675,505.641781 C347.922682,496.424339 345.195571,440.273126 344.520341,337.188142 L457,238 L530.51987,200.351514 L569,219.403155 L667.862453,361.938712 C705.614205,466.936834 722.983917,519.219617 719.97159,518.787062 Z"></path>
        <circle r="9" cy="445" cx="466" fill="#110D2E" id="椭圆形"></circle>
        <circle r="9" cy="440" cx="578" fill="#110D2E" id="椭圆形备份"></circle>
        <path stroke-linejoin="round" stroke-linecap="round" stroke-width="7" stroke="#FF9494" id="路径-5" d="M522.103395,472 L522.103395,498 C522.103395,505.731986 528.371409,512 536.103395,512 L542.936345,512 L542.936345,512"></path>
        <line stroke-linejoin="round" stroke-linecap="round" stroke-width="7" stroke="#110D2E" id="路径-8" y2="562.5" x2="540.80279" y1="562.5" x1="512"></line>
        <line opacity="0.063684" stroke-width="5" stroke="#FFFFFF" id="路径-9" y2="298.5" x2="533.5" y1="200.351514" x1="533.91587"></line>
    </g>
</svg>